# xmcd
# 
# Track frame offsets:
#     150
#     27898
#     46635
#     56496
#     74712
#     94794
#     112049
#     126799
#     152045
#     171786
#     190995
#     209651
#     234726
#     263629
#     285064
# 
# Disc length: 4124
# 
# Revision: 2
# Processed by: cddbd v1.5.2PL0 Copyright (c) Steve Scherf et al.
# Submitted via: fre:ac v1.0.31
# 
DISCID=d2101a0f
DTITLE=Ben Liebrand - Intergalactic CD2.wav
DYEAR=2010
DGENRE=Jazz
TTITLE0=SHARON BROWN-I Specialize In Love
TTITLE1=O BRYAN-Lovelite
TTITLE2=CHERYL LYNN-To Be Real
TTITLE3=MARK FISHER-Love Situation
TTITLE4=CROWN HEIGHTS AFFAIR-You Gave Me Love
TTITLE5=PAULI CARMEN-Dial My Number
TTITLE6=MIDNIGHT STAR-Midas Touch
TTITLE7=DAVID JOSEPH-You Can t Hide
TTITLE8=GWEN GUTHRIE-Should Have Been You
TTITLE9=JERRY KNIGHT-Overnight Sensation
TTITLE10=MIDWAY-Set It Out
TTITLE11=B B AND Q BAND-On The Beat
TTITLE12=SHALAMAR-Right In The Socket
TTITLE13=CHOCOLATE MILK-Who s Getting It Now
TTITLE14=THE LIMIT-Say Yeah
EXTD=YEAR: 2010
EXTT0=
EXTT1=
EXTT2=
EXTT3=
EXTT4=
EXTT5=
EXTT6=
EXTT7=
EXTT8=
EXTT9=
EXTT10=
EXTT11=
EXTT12=
EXTT13=
EXTT14=
PLAYORDER=
